<?xml version="1.0" encoding="UTF-8"?>
<svg xmlns="http://www.w3.org/2000/svg" xmlns:xlink="http://www.w3.org/1999/xlink" width="500px" height="500px" viewBox="0 0 500 500" version="1.1">
<g id="surface1">
<path style=" stroke:none;fill-rule:nonzero;fill:rgb(100%,97.647059%,93.333333%);fill-opacity:1;" d="M 0.417969 -0.417969 L 499.582031 -0.417969 L 499.582031 499.582031 L 0.417969 499.582031 Z M 0.417969 -0.417969 "/>
<path style=" stroke:none;fill-rule:nonzero;fill:rgb(28.235294%,28.627451%,28.627451%);fill-opacity:1;" d="M 130.457031 69.125 C 131.582031 69.417969 132.75 69.625 133.875 69.957031 C 140.792969 71.957031 145.582031 77.917969 146.042969 85.125 C 146.25 88.292969 146.5 91.417969 146.707031 94.582031 C 146.75 95.5 147.042969 95.625 147.917969 95.457031 C 150.707031 95.042969 153.375 94.207031 156.125 93.707031 C 159.875 93.042969 162.75 95.042969 163.207031 98.832031 C 163.707031 102.792969 164.125 106.792969 164.582031 110.75 C 164.625 111.25 164.5 111.542969 164.042969 111.707031 C 163.917969 111.75 163.792969 111.832031 163.667969 111.875 C 162.417969 112.667969 161.25 113.042969 159.75 112.167969 C 158.5 111.417969 156.917969 111.582031 155.417969 111.832031 C 156.417969 110.957031 157.25 110.082031 157.707031 108.832031 C 158.292969 107.167969 158.167969 105.542969 157.042969 104.167969 C 155.832031 102.707031 154.25 102.167969 152.417969 102.5 C 149.875 102.957031 148.125 104.417969 147.457031 106.917969 C 146.792969 109.375 148 111.457031 150.832031 112.625 C 150.207031 112.792969 149.625 112.875 149.082031 113.042969 C 145.25 114.125 142.875 117.625 143.292969 121.582031 C 143.5 123.542969 143.417969 123.707031 141.792969 124.375 C 141.625 124.457031 141.417969 124.625 141.25 124.375 C 139.167969 122.082031 136.542969 121.707031 133.667969 122.125 C 133.582031 122.125 133.457031 122.125 133.332031 122.125 C 133.375 121.75 133.75 121.667969 133.957031 121.457031 C 135.875 119.792969 136.917969 117.75 136.832031 115.167969 C 136.707031 111.542969 133.457031 109.082031 129.917969 109.832031 C 125.707031 110.75 122.957031 115.167969 124.167969 119.125 C 124.75 121 126 122.207031 128 122.917969 C 127.25 123.042969 126.667969 123.167969 126.082031 123.292969 C 121.792969 124.292969 118.457031 128.375 118.332031 132.792969 C 118.292969 134.667969 118.292969 136.5 118.332031 138.375 C 118.332031 139.167969 117.875 139.417969 117.417969 139.75 C 117.042969 140.042969 116.957031 139.625 116.832031 139.417969 C 116.292969 138.457031 115.625 137.582031 114.832031 136.875 C 112.707031 134.957031 110.207031 134 107.292969 134.292969 C 106.875 134.332031 106.457031 134.332031 105.957031 134.375 C 106.125 133.917969 106.542969 133.832031 106.792969 133.582031 C 110.082031 130.667969 111.5 127.042969 110.457031 122.707031 C 109.457031 118.457031 105.332031 116.542969 101.332031 118.292969 C 96.875 120.207031 94.25 126 95.707031 130.625 C 96.332031 132.667969 97.625 134.167969 99.625 135.082031 C 98.957031 135.417969 98.25 135.332031 97.625 135.457031 C 92.625 136.625 89.875 140.082031 88.207031 144.667969 C 87.167969 147.582031 87.375 150.707031 87.167969 153.75 C 86.917969 157.582031 86.75 161.457031 86.5 165.582031 C 85.125 164.042969 83.917969 162.667969 82.707031 161.292969 C 82.457031 161 82.582031 160.707031 82.625 160.375 C 83.207031 152.582031 83.832031 144.75 84.417969 136.957031 C 85 129.625 85.542969 122.25 86.125 114.917969 C 86.417969 111.457031 88.375 109.25 91.75 108.457031 C 93.417969 108.042969 95.082031 107.75 96.75 107.207031 C 97.332031 107 97.542969 106.832031 97.542969 106.25 C 97.667969 103.457031 97.792969 100.707031 98 97.957031 C 98.457031 91.582031 101 86.042969 105 81.125 C 109.792969 75.25 115.832031 71.207031 123.332031 69.542969 C 124.125 69.375 125 69.417969 125.75 69.042969 C 127.375 69.042969 129 69.042969 130.582031 69.042969 Z M 105.667969 99.917969 C 105.667969 101.457031 105.667969 103 105.667969 104.542969 C 105.667969 105.167969 105.75 105.332031 106.417969 105.167969 C 108.25 104.707031 110.082031 104.292969 111.957031 103.875 C 119.667969 102.082031 127.375 100.292969 135.125 98.542969 C 136 98.332031 136.25 98.042969 136.125 97.125 C 136 96.207031 136.042969 95.25 136 94.292969 C 135.832031 91.707031 136 89.082031 135.5 86.5 C 134.332031 80.417969 128.75 76.792969 122.332031 78 C 115.542969 79.332031 110.832031 83.332031 107.707031 89.417969 C 106 92.707031 105.917969 96.292969 105.707031 99.875 Z M 105.667969 99.917969 "/>
<path style=" stroke:none;fill-rule:nonzero;fill:rgb(13.333333%,50.588235%,66.666667%);fill-opacity:1;" d="M 154.707031 121.582031 C 158.082031 119.625 161.667969 118 165.207031 116.292969 C 171.667969 113.207031 178.207031 110.417969 184.875 107.75 C 185.207031 107.625 185.542969 107.542969 185.875 107.417969 C 185.957031 107.5 186.042969 107.582031 186.125 107.625 C 179.582031 110.667969 173.207031 113.917969 167.042969 117.625 C 145.457031 130.542969 126.582031 146.667969 110.292969 165.832031 C 101.082031 176.667969 93 188.292969 86.082031 200.707031 C 85.875 201.082031 85.5 201.417969 85.582031 201.917969 L 85.167969 201.917969 C 85.292969 201.292969 84.875 200.792969 84.667969 200.25 C 83.75 197.917969 82.792969 195.625 81.875 193.292969 C 82.125 193.207031 82.207031 192.957031 82.375 192.75 C 83.875 190.417969 85.292969 188.042969 86.875 185.792969 C 90.167969 181 93.625 176.375 97.292969 171.875 C 100.375 168.125 103.542969 164.417969 106.917969 160.917969 C 112.332031 155.332031 117.875 149.875 123.792969 144.792969 C 127.417969 141.707031 131.042969 138.667969 134.832031 135.75 C 140.832031 131.167969 146.957031 126.75 153.292969 122.625 C 153.582031 122.417969 154.042969 122.332031 154.082031 121.875 C 154.167969 121.832031 154.25 121.75 154.375 121.707031 C 154.542969 121.707031 154.707031 121.707031 154.792969 121.5 Z M 154.707031 121.582031 "/>
<path style=" stroke:none;fill-rule:nonzero;fill:rgb(28.235294%,28.627451%,28.627451%);fill-opacity:1;" d="M 267.417969 129.957031 C 267.417969 130.375 267.417969 130.792969 267.417969 131.207031 C 267.417969 142.125 267.417969 153.042969 267.417969 164 C 267.417969 164.875 267.207031 165.125 266.332031 165.082031 C 262.417969 165.042969 258.542969 165.042969 254.625 165.082031 C 253.832031 165.082031 253.625 164.875 253.625 164.082031 C 253.625 144.832031 253.625 125.582031 253.625 106.332031 C 253.625 105.417969 253.957031 105.332031 254.707031 105.332031 C 259.417969 105.332031 264.125 105.332031 268.832031 105.332031 C 269.625 105.332031 269.957031 105.582031 270.25 106.332031 C 275.207031 119.375 280.167969 132.417969 285.167969 145.417969 C 285.292969 145.75 285.457031 146.125 285.667969 146.667969 C 287.875 140.792969 290.042969 135.125 292.167969 129.457031 C 295.082031 121.707031 298.042969 114 300.917969 106.25 C 301.167969 105.582031 301.457031 105.375 302.167969 105.375 C 306.917969 105.375 311.667969 105.375 316.375 105.375 C 317.125 105.375 317.375 105.5 317.375 106.332031 C 317.375 125.625 317.375 144.917969 317.375 164.207031 C 317.375 164.957031 317.167969 165.167969 316.457031 165.125 C 312.542969 165.125 308.582031 165.082031 304.667969 165.125 C 303.792969 165.125 303.667969 164.832031 303.667969 164.042969 C 303.667969 152.667969 303.667969 141.292969 303.667969 129.832031 C 303.207031 130.082031 303.207031 130.542969 303.082031 130.917969 C 299.207031 141.957031 295.292969 153 291.457031 164.042969 C 291.167969 164.917969 290.75 165.125 289.875 165.125 C 286.917969 165.082031 283.957031 165.042969 281.042969 165.125 C 280.167969 165.125 279.875 164.832031 279.582031 164.042969 C 275.707031 152.957031 271.792969 141.917969 267.875 130.832031 C 267.792969 130.542969 267.667969 130.25 267.582031 129.957031 C 267.5 129.957031 267.417969 129.957031 267.332031 129.957031 Z M 267.417969 129.957031 "/>
<path style=" stroke:none;fill-rule:nonzero;fill:rgb(28.235294%,28.627451%,28.627451%);fill-opacity:1;" d="M 323.25 135.167969 C 323.25 125.582031 323.25 116 323.25 106.375 C 323.25 105.5 323.5 105.25 324.332031 105.292969 C 332.082031 105.332031 339.875 105.167969 347.625 105.417969 C 354.292969 105.667969 360.042969 108.125 363.582031 114.207031 C 366.042969 118.375 366.625 122.957031 365.917969 127.667969 C 365 133.957031 361.792969 138.707031 355.957031 141.5 C 353.332031 142.75 350.542969 143.417969 347.625 143.542969 C 344.417969 143.667969 341.167969 143.625 337.917969 143.582031 C 337.125 143.582031 336.917969 143.832031 336.917969 144.582031 C 336.917969 151.042969 336.917969 157.5 336.917969 163.957031 C 336.917969 164.832031 336.667969 165.042969 335.792969 165.042969 C 331.875 165 328 165 324.082031 165.042969 C 323.25 165.042969 323.125 164.792969 323.125 164.042969 C 323.125 154.417969 323.125 144.792969 323.125 135.167969 Z M 341.75 117.082031 C 341.75 117.082031 341.75 117.042969 341.75 117 C 340.417969 117 339.082031 117 337.75 117 C 337.167969 117 336.957031 117.207031 336.957031 117.792969 C 336.957031 122.292969 336.957031 126.792969 336.957031 131.25 C 336.957031 131.792969 337.125 132 337.667969 131.957031 C 340.125 131.957031 342.582031 131.957031 345.042969 131.917969 C 350.332031 131.792969 352.457031 128.457031 352.125 123.792969 C 351.832031 119.417969 349.667969 117.375 345.292969 117.082031 C 344.125 117 342.917969 117.082031 341.707031 117.082031 Z M 341.75 117.082031 "/>
<path style=" stroke:none;fill-rule:nonzero;fill:rgb(27.843137%,28.235294%,28.235294%);fill-opacity:1;" d="M 207.667969 135.082031 C 207.667969 125.582031 207.667969 116.042969 207.667969 106.542969 C 207.667969 105.625 207.832031 105.292969 208.832031 105.292969 C 215.875 105.332031 222.875 105.292969 229.917969 105.292969 C 233.207031 105.292969 236.417969 105.707031 239.5 106.957031 C 246.167969 109.667969 249.625 114.792969 250.457031 121.792969 C 250.957031 125.917969 250.457031 129.917969 248.5 133.667969 C 245.5 139.5 240.457031 142.332031 234.167969 143.25 C 230.332031 143.792969 226.457031 143.5 222.582031 143.5 C 221.582031 143.5 221.375 143.792969 221.375 144.75 C 221.375 151.167969 221.375 157.625 221.375 164.042969 C 221.375 164.832031 221.207031 165.042969 220.375 165.042969 C 216.457031 165 212.5 165 208.582031 165.042969 C 207.75 165.042969 207.625 164.792969 207.625 164.042969 C 207.625 154.375 207.625 144.707031 207.625 135.082031 Z M 221.375 124.457031 C 221.375 126.707031 221.375 128.957031 221.375 131.207031 C 221.375 131.832031 221.542969 132.082031 222.207031 132.042969 C 224.625 132 227.042969 132.042969 229.457031 131.957031 C 234.332031 131.792969 236.792969 129.082031 236.625 124.207031 C 236.457031 120.167969 234.625 117.792969 231 117.25 C 228 116.792969 224.957031 117.125 221.957031 117.042969 C 221.332031 117.042969 221.417969 117.457031 221.417969 117.832031 C 221.417969 120.042969 221.417969 122.25 221.417969 124.457031 Z M 221.375 124.457031 "/>
<path style=" stroke:none;fill-rule:nonzero;fill:rgb(27.843137%,28.235294%,28.235294%);fill-opacity:1;" d="M 396.832031 141.5 C 396.875 134.707031 398.582031 128.667969 403.25 123.792969 C 407.917969 118.917969 413.75 116.792969 420.417969 116.917969 C 433 117.125 441.917969 125.457031 443.167969 138.082031 C 443.75 144.125 442.957031 149.875 439.75 155.125 C 435.667969 161.792969 429.5 165.125 421.792969 165.667969 C 415.5 166.125 409.707031 164.625 404.832031 160.457031 C 400.332031 156.625 398.042969 151.625 397.167969 145.875 C 396.917969 144.375 396.917969 142.875 396.832031 141.542969 Z M 429.417969 141.292969 C 429.375 139.082031 429.082031 136.875 428.125 134.832031 C 426.5 131.417969 423.832031 129.457031 420.042969 129.457031 C 416.125 129.457031 413.375 131.5 411.957031 135.082031 C 410.417969 138.917969 410.417969 142.832031 411.667969 146.75 C 412.957031 150.75 415.875 153 419.792969 153.082031 C 423.5 153.207031 426.75 151 428.292969 147.332031 C 429.125 145.417969 429.375 143.375 429.417969 141.25 Z M 429.417969 141.292969 "/>
<path style=" stroke:none;fill-rule:nonzero;fill:rgb(27.843137%,28.235294%,28.235294%);fill-opacity:1;" d="M 383 125.042969 C 385.25 122.042969 387.832031 119.582031 391.292969 118.167969 C 392.875 117.542969 394.5 117.207031 396.207031 117.042969 C 396.917969 116.957031 397 117.25 397 117.875 C 397 122.457031 397 127.082031 397 131.667969 C 397 132.332031 396.792969 132.5 396.167969 132.5 C 394.332031 132.5 392.5 132.457031 390.707031 132.625 C 385.875 133.125 383.167969 136.167969 383.082031 141.417969 C 382.957031 147.042969 383.042969 152.667969 383.042969 158.292969 C 383.042969 160.292969 383.042969 162.292969 383.042969 164.292969 C 383.042969 164.875 382.875 165.082031 382.292969 165.082031 C 378.207031 165.082031 374.125 165.082031 370.082031 165.082031 C 369.207031 165.082031 369.332031 164.582031 369.332031 164.082031 C 369.332031 151.917969 369.332031 139.792969 369.332031 127.625 C 369.332031 124.582031 369.332031 121.5 369.332031 118.457031 C 369.332031 117.792969 369.457031 117.542969 370.167969 117.542969 C 374.167969 117.542969 378.167969 117.542969 382.167969 117.542969 C 382.875 117.542969 383.082031 117.707031 383.042969 118.417969 C 383 120.625 383.042969 122.832031 383.042969 125.042969 Z M 383 125.042969 "/>
<path style=" stroke:none;fill-rule:nonzero;fill:rgb(40%,54.901961%,23.529412%);fill-opacity:1;" d="M 167.542969 125.707031 C 168.25 125.5 168.082031 126.082031 168.125 126.375 C 168.582031 130.25 169 134.125 169.457031 137.957031 C 170.207031 144.417969 170.917969 150.832031 171.707031 157.292969 C 172.042969 160.125 172.125 160.082031 169.292969 160.167969 C 157.375 160.542969 145.457031 160.957031 133.5 161.332031 C 132.125 161.375 130.75 161.332031 129.417969 161.375 C 131 159.625 132.5 157.832031 134.125 156.167969 C 141.582031 148.625 149.042969 141.082031 157.207031 134.292969 C 160.125 131.875 163.042969 129.417969 166.082031 127.082031 C 166.625 126.667969 167.375 126.417969 167.542969 125.625 Z M 167.542969 125.707031 "/>
<path style=" stroke:none;fill-rule:nonzero;fill:rgb(15.294118%,59.215686%,78.039216%);fill-opacity:1;" d="M 154 121.957031 C 154 122.457031 153.5 122.542969 153.207031 122.707031 C 146.875 126.832031 140.707031 131.207031 134.75 135.832031 C 131 138.707031 127.332031 141.75 123.707031 144.875 C 117.792969 149.957031 112.25 155.375 106.832031 161 C 103.457031 164.5 100.292969 168.207031 97.207031 171.957031 C 93.542969 176.457031 90.082031 181.082031 86.792969 185.875 C 85.207031 188.167969 83.792969 190.5 82.292969 192.832031 C 82.167969 193.042969 82.082031 193.292969 81.792969 193.375 C 79.042969 186.917969 76.582031 180.375 74.207031 173.75 C 71.5 166.082031 69.042969 158.375 66.625 150.625 C 66.957031 150.457031 67.082031 150.707031 67.207031 150.917969 C 72.25 158.542969 78.542969 165.082031 84.625 171.875 C 85.125 172.457031 85.667969 173 86.125 173.625 C 86.625 174.332031 86.917969 174.25 87.417969 173.625 C 90.832031 169.25 94.542969 165.125 98.5 161.207031 C 110.417969 149.25 123.957031 139.375 138.375 130.707031 C 143.167969 127.832031 148.082031 125.082031 153.042969 122.457031 C 153.332031 122.292969 153.667969 122.167969 154 122.042969 Z M 154 121.957031 "/>
<path style=" stroke:none;fill-rule:nonzero;fill:rgb(40.784314%,55.294118%,24.705882%);fill-opacity:1;" d="M 119.292969 173.167969 C 125.082031 173.167969 130.875 173.167969 136.667969 173.25 C 153.125 173.332031 169.625 173.417969 186.082031 173.5 C 187.082031 173.5 187.167969 173.25 187.042969 172.332031 C 185.707031 163.292969 184.417969 154.207031 183.125 145.125 C 182.917969 143.75 182.667969 142.417969 182.542969 141.042969 C 182.5 140.582031 181.957031 139.792969 183.082031 139.75 C 183.832031 139.75 184.625 139.375 184.75 140.707031 C 185.082031 143.792969 185.625 146.832031 186.082031 149.875 C 187.167969 157.207031 188.25 164.542969 189.332031 171.832031 C 189.582031 173.625 189.792969 175.457031 190.167969 177.25 C 190.375 178.25 190.042969 178.332031 189.207031 178.292969 C 183.25 178.167969 177.25 178.082031 171.292969 177.957031 C 163.875 177.832031 156.457031 177.707031 149.042969 177.542969 C 138.542969 177.332031 128.042969 177.167969 117.542969 176.957031 C 117.25 176.957031 117 176.957031 116.707031 176.917969 C 117.25 175.457031 118.5 174.457031 119.25 173.125 Z M 119.292969 173.167969 "/>
<path style=" stroke:none;fill-rule:nonzero;fill:rgb(40.784314%,55.294118%,24.705882%);fill-opacity:1;" d="M 125.625 165.457031 C 131.542969 165.332031 137.417969 165.167969 143.332031 165.042969 C 154.582031 164.792969 165.792969 164.582031 177.042969 164.375 C 177.792969 164.375 178 164.167969 177.917969 163.417969 C 176.875 155.417969 175.832031 147.417969 174.832031 139.417969 C 174.582031 137.375 174.332031 135.292969 174.082031 133.25 C 174 132.75 174.082031 132.625 174.625 132.542969 C 176.832031 132.207031 176.832031 132.167969 177.125 134.417969 C 178.582031 145.25 180.042969 156.042969 181.5 166.875 C 181.75 168.875 181.792969 168.875 179.707031 168.875 C 161.125 169 142.542969 169.167969 123.957031 169.292969 C 123.542969 169.292969 123.125 169.292969 122.707031 169.292969 C 123.082031 168.707031 123.582031 168.207031 123.957031 167.667969 C 124.5 166.917969 125.375 166.417969 125.625 165.5 Z M 125.625 165.457031 "/>
<path style=" stroke:none;fill-rule:nonzero;fill:rgb(34.117647%,46.27451%,20.392157%);fill-opacity:1;" d="M 167.542969 125.707031 C 167.375 126.5 166.625 126.75 166.082031 127.167969 C 163.082031 129.5 160.167969 131.917969 157.207031 134.375 C 149.042969 141.167969 141.582031 148.707031 134.125 156.25 C 132.5 157.917969 130.957031 159.707031 129.417969 161.457031 C 126.542969 161.832031 123.625 161.542969 120.707031 161.875 C 120.75 161.375 121.082031 161.167969 121.332031 160.957031 C 133.917969 147.875 147.75 136.375 163.082031 126.625 C 164.082031 125.957031 165.25 126.167969 166.332031 125.875 C 166.75 125.792969 167.167969 125.792969 167.582031 125.75 Z M 167.542969 125.707031 "/>
<path style=" stroke:none;fill-rule:nonzero;fill:rgb(34.117647%,46.27451%,20.392157%);fill-opacity:1;" d="M 119.292969 173.167969 C 118.582031 174.5 117.292969 175.5 116.75 176.957031 L 107.625 176.957031 C 107.625 176.875 107.582031 176.75 107.542969 176.667969 C 108.417969 175.542969 109.332031 174.457031 110.207031 173.332031 C 110.375 173.125 110.542969 173.042969 110.832031 173.042969 C 113.625 173.082031 116.457031 173.125 119.25 173.167969 Z M 119.292969 173.167969 "/>
<path style=" stroke:none;fill-rule:nonzero;fill:rgb(34.901961%,46.666667%,21.568627%);fill-opacity:1;" d="M 125.625 165.457031 C 125.332031 166.375 124.457031 166.875 123.957031 167.625 C 123.582031 168.167969 123.082031 168.667969 122.707031 169.25 L 113.792969 169.25 C 114.832031 168.042969 115.875 166.875 116.917969 165.75 C 117.082031 165.542969 117.375 165.542969 117.582031 165.542969 C 120.292969 165.542969 122.957031 165.5 125.667969 165.457031 Z M 125.625 165.457031 "/>
<path style=" stroke:none;fill-rule:nonzero;fill:rgb(15.294118%,59.215686%,78.039216%);fill-opacity:1;" d="M 186.125 107.667969 C 186.042969 107.582031 185.957031 107.5 185.875 107.457031 C 187.207031 106.75 188.667969 106.332031 190.167969 106 C 188.832031 106.542969 187.5 107.125 186.167969 107.667969 Z M 186.125 107.667969 "/>
<path style=" stroke:none;fill-rule:nonzero;fill:rgb(15.294118%,59.215686%,78.039216%);fill-opacity:1;" d="M 190.667969 105.667969 C 190.625 105.667969 190.582031 105.75 190.542969 105.75 C 190.5 105.75 190.457031 105.707031 190.417969 105.667969 C 190.417969 105.667969 190.457031 105.582031 190.5 105.625 C 190.582031 105.625 190.625 105.625 190.707031 105.667969 Z M 190.667969 105.667969 "/>
<path style=" stroke:none;fill-rule:nonzero;fill:rgb(15.294118%,59.215686%,78.039216%);fill-opacity:1;" d="M 154.707031 121.582031 C 154.625 121.75 154.457031 121.832031 154.292969 121.792969 C 154.375 121.625 154.542969 121.582031 154.707031 121.582031 Z M 154.707031 121.582031 "/>
<path style=" stroke:none;fill-rule:nonzero;fill:rgb(15.294118%,59.215686%,78.039216%);fill-opacity:1;" d="M 154.292969 121.792969 C 154.207031 121.832031 154.125 121.917969 154 121.957031 C 154.082031 121.917969 154.167969 121.832031 154.292969 121.792969 Z M 154.292969 121.792969 "/>
<path style=" stroke:none;fill-rule:nonzero;fill:rgb(11.764706%,12.941176%,31.764706%);fill-opacity:1;" d="M 273.832031 282.332031 C 273 272.417969 264.292969 265.25 254.957031 265.25 C 245.625 265.25 237.125 272.332031 236.292969 282.332031 Z M 236.292969 290.75 C 238.832031 300.457031 246.457031 306.707031 255.375 306.707031 C 264.292969 306.707031 268.582031 303.125 271.917969 296.875 L 282.792969 296.875 C 278.292969 308.917969 267.375 316.707031 254.917969 316.707031 C 242.457031 316.707031 225.375 302.125 225.375 286.5 C 225.375 270.875 239.207031 255.167969 254.625 255.167969 C 270.042969 255.167969 284.707031 268.457031 284.707031 285.25 C 284.707031 302.042969 284.707031 288.75 284.417969 290.75 C 284.417969 290.75 236.292969 290.75 236.292969 290.75 Z M 236.292969 290.75 "/>
<path style=" stroke:none;fill-rule:nonzero;fill:rgb(11.764706%,12.941176%,31.764706%);fill-opacity:1;" d="M 366.25 315.25 L 366.25 282.542969 C 366.25 271.457031 361.625 265.25 352.542969 265.25 C 343.457031 265.25 338.707031 270.625 338.707031 282.332031 L 338.707031 315.292969 L 327.832031 315.292969 L 327.832031 281.292969 C 327.832031 269.792969 322.5 265.25 314.625 265.25 C 306.75 265.25 300.25 270.957031 300.25 282.457031 L 300.25 315.292969 L 289.375 315.292969 L 289.375 256.832031 L 299.457031 256.832031 L 299.457031 263.167969 L 299.667969 263.167969 C 304.375 257.582031 308.792969 255.25 316.332031 255.25 C 323.875 255.25 331.417969 258.957031 334.375 265.082031 C 338.542969 258.417969 344.332031 255.25 353.542969 255.25 C 368.625 255.25 377.25 264.75 377.25 279.832031 L 377.25 315.292969 L 366.332031 315.292969 Z M 366.25 315.25 "/>
<path style=" stroke:none;fill-rule:nonzero;fill:rgb(11.764706%,12.941176%,31.764706%);fill-opacity:1;" d="M 432.707031 286.125 C 432.707031 274.707031 424.542969 265.25 412.457031 265.25 C 400.375 265.25 392.625 274.625 392.625 286.125 C 392.625 297.625 401.542969 306.707031 412.457031 306.707031 C 423.792969 306.707031 432.707031 297.207031 432.707031 286.125 M 432.5 315.25 L 432.5 306.167969 L 432.292969 306.167969 C 428.207031 313.125 420.875 316.707031 412.582031 316.707031 C 395.582031 316.707031 381.75 303.832031 381.75 286.957031 C 381.75 270.082031 395.042969 255.207031 412.167969 255.207031 C 429.292969 255.207031 427.792969 258.375 432.292969 265.042969 L 432.5 265.042969 L 432.5 256.832031 L 443.375 256.832031 L 443.375 315.292969 L 432.5 315.292969 Z M 432.5 315.25 "/>
<path style=" stroke:none;fill-rule:nonzero;fill:rgb(11.764706%,12.941176%,31.764706%);fill-opacity:1;" d="M 451.167969 256.792969 L 462.042969 256.792969 L 462.042969 315.25 L 451.167969 315.25 Z M 451.167969 237.167969 L 462.042969 237.167969 L 462.042969 250.042969 L 451.167969 250.042969 Z M 451.167969 237.167969 "/>
<path style=" stroke:none;fill-rule:nonzero;fill:rgb(11.764706%,12.941176%,31.764706%);fill-opacity:1;" d="M 470.375 237.167969 L 481.25 237.167969 L 481.25 315.292969 L 470.375 315.292969 Z M 470.375 237.167969 "/>
<path style=" stroke:none;fill-rule:nonzero;fill:rgb(11.764706%,12.941176%,31.764706%);fill-opacity:1;" d="M 283.667969 386.582031 C 279.042969 399.792969 267.957031 407.375 255.042969 407.375 C 242.125 407.375 225.292969 393.875 225.292969 377.167969 C 225.292969 360.457031 237.957031 345.832031 254.957031 345.832031 C 271.957031 345.832031 280.207031 354.167969 283.667969 366.832031 L 271.582031 366.832031 C 268.332031 359.957031 263.082031 355.832031 255.207031 355.832031 C 243.792969 355.832031 236.125 364.582031 236.125 376.542969 C 236.125 388.5 244 397.332031 255 397.332031 C 266 397.332031 268.417969 393.332031 271.457031 386.582031 Z M 283.667969 386.582031 "/>
<path style=" stroke:none;fill-rule:nonzero;fill:rgb(11.764706%,12.941176%,31.764706%);fill-opacity:1;" d="M 329.75 405.917969 L 329.75 374.167969 C 329.75 361.625 324.917969 355.917969 315.292969 355.917969 C 305.667969 355.917969 300 362.875 300 374.292969 L 300 405.957031 L 289.125 405.957031 L 289.125 327.832031 L 300 327.832031 L 300 353.707031 L 300.207031 353.707031 C 303.667969 348.542969 309.207031 345.917969 316.457031 345.917969 C 330.292969 345.917969 340.667969 354.792969 340.667969 370.832031 L 340.667969 406 L 329.75 406 Z M 329.75 405.917969 "/>
<path style=" stroke:none;fill-rule:nonzero;fill:rgb(11.764706%,12.941176%,31.764706%);fill-opacity:1;" d="M 393.582031 373 C 392.75 363.082031 384.042969 355.917969 374.707031 355.917969 C 365.375 355.917969 356.875 363 356.042969 373 Z M 356.042969 381.417969 C 358.582031 391.125 366.207031 397.375 375.125 397.375 C 384.042969 397.375 388.332031 393.792969 391.667969 387.542969 L 402.542969 387.542969 C 398.042969 399.582031 387.125 407.375 374.667969 407.375 C 362.207031 407.375 345.125 392.792969 345.125 377.207031 C 345.125 361.625 358.957031 345.875 374.375 345.875 C 389.792969 345.875 404.457031 359.167969 404.457031 375.957031 C 404.457031 392.75 404.457031 379.457031 404.167969 381.457031 L 356.042969 381.457031 Z M 356.042969 381.417969 "/>
<path style=" stroke:none;fill-rule:nonzero;fill:rgb(11.764706%,12.941176%,31.764706%);fill-opacity:1;" d="M 409.417969 405.917969 L 409.417969 357.457031 L 404.292969 357.457031 L 404.292969 347.417969 L 409.417969 347.417969 L 409.417969 344.792969 C 409.417969 333.625 417.292969 327.792969 428.082031 327.792969 L 430.5 327.792969 L 430.5 337.792969 C 423.375 337.792969 420.332031 340.332031 420.332031 344.667969 L 420.332031 347.417969 L 430.5 347.417969 L 430.5 357.457031 L 420.332031 357.457031 L 420.332031 405.917969 Z M 409.417969 405.917969 "/>
<path style=" stroke:none;fill-rule:nonzero;fill:rgb(97.647059%,69.411765%,48.627451%);fill-opacity:1;" d="M 167.417969 252.082031 C 158.707031 234.167969 140.417969 221.792969 119.25 221.792969 C 98.082031 221.792969 89.75 228.457031 79.957031 239.082031 C 78 238.875 76.042969 238.75 74.042969 238.75 C 44.417969 238.75 20.417969 262.917969 20.417969 292.707031 C 20.417969 322.5 44.417969 346.667969 74 346.667969 C 103.582031 346.667969 103.5 340 113.292969 329.375 C 115.25 329.582031 117.207031 329.707031 119.207031 329.707031 C 124.082031 329.707031 128.792969 329.042969 133.25 327.832031 C 141.542969 337.207031 153.625 343.167969 167.082031 343.167969 C 192.082031 343.167969 212.332031 322.75 212.332031 297.625 C 212.332031 272.582031 192.25 252.25 167.417969 252.082031 "/>
<path style=" stroke:none;fill-rule:nonzero;fill:rgb(96.078431%,54.509804%,24.313725%);fill-opacity:1;" d="M 177.292969 407.582031 L 59.332031 407.582031 C 56.582031 407.582031 54.375 405.332031 54.375 402.582031 L 44.667969 311.25 C 44.667969 308.5 47.75 307.625 50.5 307.625 L 185.917969 307.125 C 188.667969 307.125 190.875 309.375 190.875 312.125 L 182.25 402.625 C 182.25 405.375 180.042969 407.625 177.292969 407.625 "/>
<path style=" stroke:none;fill-rule:nonzero;fill:rgb(100%,100%,100%);fill-opacity:1;" d="M 112.582031 373.167969 L 46 314 C 43.167969 311.457031 45.125 307.125 49.125 307.125 L 186.5 307.125 C 190.542969 307.125 192.457031 311.625 189.5 314.125 L 118.667969 373.25 C 116.917969 374.707031 114.25 374.667969 112.582031 373.167969 "/>
</g>
</svg>
